# xmcd CD database file
#
# Track frame offsets:
#	150
#	18814
#	37064
#	60849
#	72849
#	85427
#
# Disc length: 1284 seconds
#
# Revision: 0
# Processed by: cddbd v1.5PL3 Copyright (c) Steve Scherf et al.
# Submitted via: CDex 1.51
#
DISCID=43050206
DTITLE=S.E.N.S. - Be As You Were When We Met
DYEAR=1994
DGENRE=New Age
TTITLE0=Sky Remembrances
TTITLE1=Your Scene
TTITLE2=Be As You Were When We Met
TTITLE3=Believe
TTITLE4=Pure Love Rhapsody - Instrumental
TTITLE5=Be As You Were When We Met - Piano
EXTD=YEAR: 1994
EXTT0=
EXTT1=
EXTT2=
EXTT3=
EXTT4=
EXTT5=
PLAYORDER=
